<svg width="416" height="470" viewBox="0 0 416 470" fill="none" xmlns="http://www.w3.org/2000/svg">
<path d="M408.317 115.545H388.173C402.634 103.563 411.862 85.476 411.862 65.273C411.862 29.281 382.581 0 346.59 0C329.355 0 313.098 6.659 300.8 18.763L244.251 74.659C238.346 60.448 224.324 50.426 208 50.426C191.677 50.426 177.654 60.448 171.75 74.66L115.189 18.753C102.903 6.66 86.645 0 69.41 0C33.419 0 4.13801 29.281 4.13801 65.272C4.13801 85.475 13.366 103.562 27.827 115.544H7.68301C3.54101 115.544 0.183014 118.902 0.183014 123.044V223.044C0.183014 227.186 3.54101 230.544 7.68301 230.544H20.183V462.5C20.183 466.642 23.541 470 27.683 470H388.318C392.461 470 395.818 466.642 395.818 462.5V230.545H408.318C412.461 230.545 415.818 227.187 415.818 223.045V123.045C415.817 118.903 412.46 115.545 408.317 115.545ZM311.333 29.442C320.796 20.129 333.316 15 346.59 15C374.311 15 396.862 37.552 396.862 65.272C396.862 92.992 374.31 115.544 346.59 115.544H247.239V92.797L311.333 29.442ZM165.5 130.545H200.5V303.045C200.5 307.187 203.858 310.545 208 310.545C212.142 310.545 215.5 307.187 215.5 303.045V130.545H250.5V349.798L211.859 326.613C209.484 325.188 206.516 325.188 204.141 326.613L165.5 349.798V130.545ZM208 65.426C221.365 65.426 232.239 76.3 232.239 89.665V115.545H183.761V89.665C183.761 76.299 194.635 65.426 208 65.426ZM19.138 65.272C19.138 37.552 41.69 15 69.41 15C82.683 15 95.204 20.129 104.656 29.431L168.761 92.796V115.544H69.41C41.69 115.545 19.138 92.993 19.138 65.272ZM400.817 215.545H288C283.857 215.545 280.5 218.903 280.5 223.045C280.5 227.187 283.857 230.545 288 230.545H380.817V455H35.183V230.545H128C132.142 230.545 135.5 227.187 135.5 223.045C135.5 218.903 132.142 215.545 128 215.545H15.183V130.545H150.5V363.045C150.5 365.747 151.954 368.24 154.305 369.571C156.657 370.903 159.542 370.866 161.859 369.476L208 341.792L254.142 369.477C255.329 370.189 256.663 370.546 258 370.546C259.273 370.546 260.548 370.222 261.695 369.572C264.047 368.241 265.5 365.748 265.5 363.046V130.546H400.817V215.545Z" fill="white"/>
<path d="M69.41 30C49.961 30 34.138 45.823 34.138 65.272C34.138 69.414 37.496 72.772 41.638 72.772C45.78 72.772 49.138 69.414 49.138 65.272C49.138 54.094 58.232 45 69.41 45C73.552 45 76.91 41.642 76.91 37.5C76.91 33.358 73.552 30 69.41 30Z" fill="white"/>
</svg>
